# xmcd
# Copyright (C) 1995-1998 Ti Kan
#
# Track frame offsets:
#       150
#       16416
#       33548
#       48776
#       69666
#       91958
#       109651
#       131627
#       159650
#       176348
#       191239
#       212866
#
# Disc length: 3113 seconds
#
# Revision: 2
# Processed by: cddbd v1.5.1PL0 Copyright (c) Steve Scherf et al.
# Submitted via: CD-Transfer v1.0
#
DISCID=a50c270c
DTITLE=Ayersrock - Outbäck Vo Bärn
DYEAR=2005
DGENRE=
TTITLE0=Bock Uf Rock
TTITLE1=Ämmitau
TTITLE2=Los Uf Dis Härz
TTITLE3=Keni Wunder
TTITLE4=Mängisch
TTITLE5=Mäntig
TTITLE6=Du Weiscvh Doch
TTITLE7=Grauholz (1798)
TTITLE8=Absturz Im System
TTITLE9=Fertig
TTITLE10=Härz Us Stei
TTITLE11=Outbäck Vo Bärn
EXTD=
EXTT0=
EXTT1=
EXTT2=
EXTT3=
EXTT4=
EXTT5=
EXTT6=
EXTT7=
EXTT8=
EXTT9=
EXTT10=
EXTT11=
PLAYORDER=
